<svg width="150" height="150" viewBox="0 0 150 150" fill="none" xmlns="http://www.w3.org/2000/svg">
<path d="M135.234 35.9766L78.6328 3.39844C77.6953 2.8125 76.4062 2.57812 75 2.57812C73.5938 2.57812 72.3047 2.92969 71.3672 3.39844L15.1172 36.0938C13.125 37.2656 11.7188 40.1953 11.7188 42.4219V107.695C11.7188 108.984 11.9531 110.508 12.8906 111.797L138.047 39.1406C137.344 37.7344 136.289 36.6797 135.234 35.9766Z" fill="#78487F"/>
<path d="M12.5391 111.68C13.125 112.617 13.9453 113.438 14.7656 113.906L71.25 146.602C72.1875 147.188 73.4766 147.422 74.8828 147.422C76.2891 147.422 77.5781 147.07 78.5156 146.602L134.766 113.906C136.758 112.734 138.164 109.805 138.164 107.578V42.3047C138.164 41.25 138.047 40.0781 137.461 39.0234L12.5391 111.68Z" fill="#28083C"/>
<path d="M99.9609 89.1797C95.0391 97.8516 85.6641 103.711 75 103.711C59.1797 103.711 46.2891 90.8203 46.2891 75C46.2891 59.1797 59.1797 46.2891 75 46.2891C85.6641 46.2891 95.0391 52.1484 99.9609 60.9375L115.195 52.1484C107.227 38.2031 92.2266 28.7109 75 28.7109C49.4531 28.7109 28.7109 49.4531 28.7109 75C28.7109 100.547 49.4531 121.289 75 121.289C92.1094 121.289 107.109 111.914 115.078 98.0859L99.9609 89.1797ZM113.672 77.5781L114.727 72.5391H109.805V67.0312H115.781L117.188 59.7656H122.93L121.523 66.9141H125.977L127.383 59.7656H133.008L131.602 66.9141H134.414V72.4219H130.547L129.492 77.4609H134.414V82.9688H128.438L127.031 90H121.289L122.695 82.9688H118.242L116.836 90H111.211L112.617 82.9688H109.805V77.4609H113.672V77.5781ZM119.297 77.5781H123.75L124.805 72.5391H120.352L119.297 77.5781Z" fill="#FFEE4A"/>
</svg>
