<svg width="75" height="75" viewBox="0 0 75 75" fill="none" xmlns="http://www.w3.org/2000/svg">
<path d="M46.875 65.625C46.875 65.625 46.875 58.5313 46.875 56.25C46.875 54.2813 47.3437 50.125 45.3125 48.4375C49.6562 48.0313 53.0625 46.625 56.25 43.75C59.4375 40.875 60.9375 36.5313 60.9375 29.6875C60.9375 25 60.1562 21.875 57.8125 18.75C58.7187 16.3125 58.875 12.5 57.8125 9.375C52.9375 9.375 48.5312 12.7187 46.875 14.0625C45.6563 13.75 42.7187 12.5 37.5 12.5C32.2813 12.5 29.3437 13.75 28.125 14.0625C26.4688 12.7187 22.0625 9.375 17.1875 9.375C16.125 12.5 16.2813 16.3125 17.1875 18.75C14.8438 21.875 14.0625 25 14.0625 29.6875C14.0625 36.5313 15.5625 40.875 18.75 43.75C21.9375 46.625 25.3438 48.0313 29.6875 48.4375C27.6563 50.125 28.125 54.2813 28.125 56.25C28.125 58.5313 28.125 65.625 28.125 65.625" stroke="#78487F" stroke-width="2" stroke-linecap="round" stroke-linejoin="round"/>
<path d="M28.125 59.375C23.7188 59.375 19.25 57.625 16.5937 55.6562C13.9687 53.6875 13.1875 50.4687 9.375 48.4375" stroke="#78487F" stroke-width="2" stroke-linecap="round" stroke-linejoin="round"/>
</svg>
