<svg width="122" height="161" viewBox="0 0 122 161" fill="none" xmlns="http://www.w3.org/2000/svg">
<g clip-path="url(#clip0_24_20)">
<path d="M60.9257 160.593L11.2764 147.695L0.212067 31.5604H121.788L110.712 147.677L60.9257 160.593Z" fill="#28083C"/>
<path d="M101.23 140.283L110.695 41.0559H61V150.72L101.23 140.283Z" fill="#78487F"/>
<path d="M25.5766 84.1285L26.9406 98.3719H61V84.1285H25.5766ZM22.8354 55.2997L24.2189 69.5431H61V55.2997H22.8354ZM61 121.12L60.9333 121.137L43.9829 116.853L42.8992 105.494H27.6206L29.7528 127.858L60.9299 135.957L61 135.939V121.12Z" fill="#FFEE4A"/>
<path d="M28.8244 0H47.2578V7.21423H36.5333V14.4285H47.2588V21.6422H28.8244V0ZM50.945 0H69.3789V6.2732H58.6539V7.52775H69.3789V21.9562H50.9455V15.3686H61.6705V14.114H50.9445L50.945 0ZM73.0661 0H91.5V6.2732H80.775V7.52775H91.5V21.9562H73.0661V15.3686H83.7911V14.114H73.0666L73.0661 0Z" fill="#FFEE4A"/>
<path d="M96.3262 84.1285L99.0735 55.2997H60.9476V69.5431H82.3939L81.009 84.1285H60.9476V98.3719H79.6894L77.9223 116.845L60.9471 121.132V135.95L92.1491 127.858L92.3778 125.452L95.9549 87.9533L96.3262 84.1285Z" fill="#FFEE4A"/>
</g>
<defs>
<clipPath id="clip0_24_20">
<rect width="122" height="161" fill="white"/>
</clipPath>
</defs>
</svg>
