<svg width="122" height="161" viewBox="0 0 122 161" fill="none" xmlns="http://www.w3.org/2000/svg">
<g clip-path="url(#clip0_24_6)">
<path d="M121.788 31.5605L110.712 147.677L60.9257 160.593L11.2764 147.695L0.212067 31.5605H121.788Z" fill="#28083C"/>
<path d="M61 150.72L101.23 140.283L110.695 41.0559H61V150.72Z" fill="#78487F"/>
<path d="M39.4689 69.5431H61V55.2997H22.8354L23.1995 59.1209L26.9406 98.3719H61V84.1285H40.86L39.4689 69.5431ZM42.8992 105.494H27.6206L29.7528 127.858L60.9299 135.957L61 135.939V121.12L60.9333 121.137L43.9829 116.853L42.8992 105.494Z" fill="#FFEE4A"/>
<path d="M11.5233 0H19.2579V7.15134H26.3334V0H34.0685V21.6561H26.3339V14.4044H19.2584V21.6561H11.5238L11.5233 0ZM44.2393 7.18167H37.4311V0H58.7878V7.18167H51.9753V21.6561H44.2407V7.18167H44.2393ZM62.1771 0H70.242L75.203 7.60937L80.1592 0H88.2274V21.6561H80.5243V10.9221L75.203 18.622H75.0695L69.7449 10.9221V21.6561H62.1771V0ZM92.0766 0H99.8136V14.498H110.691V21.6561H92.0762L92.0766 0Z" fill="#FFEE4A"/>
<path d="M60.9476 98.3719H79.6893L77.9222 116.845L60.9471 121.132V135.95L92.1491 127.858L92.3778 125.452L95.9549 87.9533L96.3261 84.1285H60.9476V98.3719ZM60.9476 69.5083V69.5431H97.711L98.016 66.3418L98.7099 59.1209L99.0735 55.2997H60.9476V69.5083Z" fill="#FFEE4A"/>
</g>
<defs>
<clipPath id="clip0_24_6">
<rect width="122" height="161" fill="white"/>
</clipPath>
</defs>
</svg>
