<svg width="70" height="81" viewBox="0 0 70 81" fill="none" xmlns="http://www.w3.org/2000/svg">
<path d="M54.4834 41.58C53.2648 40.1699 51.8178 39.052 50.2251 38.2903C48.6325 37.5286 46.9256 37.1381 45.2023 37.1412C43.479 37.1444 41.7732 37.541 40.1826 38.3085C38.592 39.076 37.148 40.1992 35.9334 41.6138C34.7128 43.0215 33.7444 44.6942 33.0837 46.5359C32.4229 48.3776 32.0828 50.3521 32.0828 52.3463C32.0828 54.3404 32.4229 56.3149 33.0837 58.1566C33.7444 59.9983 34.7128 61.671 35.9334 63.0788C38.0368 65.5022 40.7867 67.0311 43.7361 67.4171C46.6856 67.8032 49.6611 67.0235 52.1792 65.205L61.25 75.5663L65.3042 70.875L56.2917 60.3787C59.5875 54.405 58.8292 46.575 54.4834 41.58ZM50.3709 58.2863C47.5125 61.5938 42.9042 61.56 40.0459 58.2863C37.2167 54.9788 37.2167 49.6463 40.075 46.3388C42.9042 43.065 47.5125 43.065 50.3709 46.3388C53.2 49.6463 53.2 54.9788 50.3709 58.2863ZM31.7917 67.8375C29.8864 65.6139 28.4145 62.9441 27.475 60.0075C18.2875 58.2188 11.6667 53.19 11.6667 47.25V57.375C11.6667 64.8338 22.1084 70.875 35 70.875C33.8334 69.9975 32.7542 68.985 31.7917 67.8375ZM11.6667 30.375V40.5C11.6667 46.17 17.7042 51.03 26.25 52.9875V52.3125C26.25 49.1738 26.8334 46.0688 27.9417 43.2338C18.4917 41.5125 11.6667 36.4163 11.6667 30.375ZM35 10.125C22.1084 10.125 11.6667 16.1663 11.6667 23.625C11.6667 30.375 20.4167 36.045 31.6459 37.125H31.7917C35.2917 32.8725 40.1334 30.375 45.2084 30.375C47.8625 30.375 50.4875 31.0163 52.9083 32.265C54.3789 31.4871 55.6509 30.283 56.6013 28.7693C57.5517 27.2557 58.1483 25.4837 58.3334 23.625C58.3334 16.1663 47.8917 10.125 35 10.125Z" fill="#28083C"/>
</svg>
