<svg width="75" height="75" viewBox="0 0 75 75" fill="none" xmlns="http://www.w3.org/2000/svg">
<path d="M30.625 0H56.875C66.875 0 75 8.125 75 18.125V44.375C75 49.1821 73.0904 53.7922 69.6913 57.1913C66.2922 60.5904 61.6821 62.5 56.875 62.5H30.625C20.625 62.5 12.5 54.375 12.5 44.375V18.125C12.5 13.318 14.4096 8.70779 17.8087 5.30869C21.2078 1.90959 25.818 0 30.625 0ZM30 6.25C27.0163 6.25 24.1548 7.43526 22.045 9.54505C19.9353 11.6548 18.75 14.5163 18.75 17.5V45C18.75 51.2188 23.7812 56.25 30 56.25H57.5C60.4837 56.25 63.3452 55.0647 65.455 52.955C67.5647 50.8452 68.75 47.9837 68.75 45V17.5C68.75 11.2812 63.7188 6.25 57.5 6.25H30ZM60.1562 10.9375C61.1923 10.9375 62.1858 11.3491 62.9184 12.0816C63.651 12.8142 64.0625 13.8077 64.0625 14.8438C64.0625 15.8798 63.651 16.8733 62.9184 17.6059C62.1858 18.3384 61.1923 18.75 60.1562 18.75C59.1202 18.75 58.1267 18.3384 57.3941 17.6059C56.6615 16.8733 56.25 15.8798 56.25 14.8438C56.25 13.8077 56.6615 12.8142 57.3941 12.0816C58.1267 11.3491 59.1202 10.9375 60.1562 10.9375ZM43.75 15.625C47.894 15.625 51.8683 17.2712 54.7985 20.2015C57.7288 23.1317 59.375 27.106 59.375 31.25C59.375 35.394 57.7288 39.3683 54.7985 42.2985C51.8683 45.2288 47.894 46.875 43.75 46.875C39.606 46.875 35.6317 45.2288 32.7015 42.2985C29.7712 39.3683 28.125 35.394 28.125 31.25C28.125 27.106 29.7712 23.1317 32.7015 20.2015C35.6317 17.2712 39.606 15.625 43.75 15.625ZM43.75 21.875C41.2636 21.875 38.879 22.8627 37.1209 24.6209C35.3627 26.379 34.375 28.7636 34.375 31.25C34.375 33.7364 35.3627 36.121 37.1209 37.8791C38.879 39.6373 41.2636 40.625 43.75 40.625C46.2364 40.625 48.621 39.6373 50.3791 37.8791C52.1373 36.121 53.125 33.7364 53.125 31.25C53.125 28.7636 52.1373 26.379 50.3791 24.6209C48.621 22.8627 46.2364 21.875 43.75 21.875Z" fill="#78487F"/>
</svg>
