<svg width="75" height="75" viewBox="0 0 75 75" fill="none" xmlns="http://www.w3.org/2000/svg">
<path d="M56.25 9.375C58.7364 9.375 61.121 10.3627 62.8791 12.1209C64.6373 13.879 65.625 16.2636 65.625 18.75V56.25C65.625 58.7364 64.6373 61.121 62.8791 62.8791C61.121 64.6373 58.7364 65.625 56.25 65.625H18.75C16.2636 65.625 13.879 64.6373 12.1209 62.8791C10.3627 61.121 9.375 58.7364 9.375 56.25V18.75C9.375 16.2636 10.3627 13.879 12.1209 12.1209C13.879 10.3627 16.2636 9.375 18.75 9.375H56.25ZM56.25 15.625H18.75C17.9212 15.625 17.1263 15.9542 16.5403 16.5403C15.9542 17.1263 15.625 17.9212 15.625 18.75V56.25C15.625 57.0788 15.9542 57.8737 16.5403 58.4597C17.1263 59.0458 17.9212 59.375 18.75 59.375H56.25C57.0788 59.375 57.8737 59.0458 58.4597 58.4597C59.0458 57.8737 59.375 57.0788 59.375 56.25V18.75C59.375 17.9212 59.0458 17.1263 58.4597 16.5403C57.8737 15.9542 57.0788 15.625 56.25 15.625ZM25 31.25C25.7654 31.2501 26.5042 31.5311 27.0762 32.0397C27.6481 32.5484 28.0136 33.2492 28.1031 34.0094L28.125 34.375V50C28.1241 50.7965 27.8191 51.5626 27.2724 52.1418C26.7256 52.7209 25.9783 53.0695 25.1831 53.1162C24.388 53.1628 23.6051 52.9041 22.9943 52.3929C22.3835 51.8817 21.9909 51.1566 21.8969 50.3656L21.875 50V34.375C21.875 33.5462 22.2042 32.7513 22.7903 32.1653C23.3763 31.5792 24.1712 31.25 25 31.25ZM34.375 28.125C35.1069 28.1249 35.8155 28.3816 36.3775 28.8505C36.9394 29.3194 37.319 29.9706 37.45 30.6906C38.0795 30.3271 38.7295 30.0005 39.3969 29.7125C41.4813 28.8219 44.6031 28.3312 47.4219 29.2156C48.9 29.6844 50.3844 30.5594 51.4844 32.05C52.4688 33.3781 53 34.9938 53.1062 36.8094L53.125 37.5V50C53.1241 50.7965 52.8191 51.5626 52.2724 52.1418C51.7256 52.7209 50.9783 53.0695 50.1831 53.1162C49.388 53.1628 48.6051 52.9041 47.9943 52.3929C47.3835 51.8817 46.9909 51.1566 46.8969 50.3656L46.875 50V37.5C46.875 36.4688 46.625 35.9875 46.4625 35.7656C46.229 35.4758 45.9076 35.2697 45.5469 35.1781C44.4594 34.8344 42.8937 35.0156 41.8531 35.4594C40.2906 36.1281 38.8594 37.1781 37.8844 38.15L37.5 38.5625V50C37.4991 50.7965 37.1941 51.5626 36.6474 52.1418C36.1006 52.7209 35.3533 53.0695 34.5581 53.1162C33.763 53.1628 32.9801 52.9041 32.3693 52.3929C31.7585 51.8817 31.3659 51.1566 31.2719 50.3656L31.25 50V31.25C31.25 30.4212 31.5792 29.6263 32.1653 29.0403C32.7513 28.4542 33.5462 28.125 34.375 28.125ZM25 21.875C25.8288 21.875 26.6237 22.2042 27.2097 22.7903C27.7958 23.3763 28.125 24.1712 28.125 25C28.125 25.8288 27.7958 26.6237 27.2097 27.2097C26.6237 27.7958 25.8288 28.125 25 28.125C24.1712 28.125 23.3763 27.7958 22.7903 27.2097C22.2042 26.6237 21.875 25.8288 21.875 25C21.875 24.1712 22.2042 23.3763 22.7903 22.7903C23.3763 22.2042 24.1712 21.875 25 21.875Z" fill="#78487F"/>
</svg>
