<svg width="54" height="54" viewBox="0 0 54 54" fill="none" xmlns="http://www.w3.org/2000/svg">
<g filter="url(#filter0_d_60_73)">
<path d="M11.25 11.25C11.836 10.6648 12.6303 10.3361 13.4584 10.3361C14.2865 10.3361 15.0808 10.6648 15.6667 11.25L27 22.5792L38.3334 11.25C38.6234 10.96 38.9677 10.7299 39.3466 10.573C39.7255 10.416 40.1316 10.3353 40.5417 10.3353C40.9518 10.3353 41.3579 10.416 41.7369 10.573C42.1158 10.7299 42.46 10.96 42.75 11.25C43.0401 11.54 43.2701 11.8843 43.427 12.2632C43.584 12.6421 43.6648 13.0482 43.6648 13.4583C43.6648 13.8684 43.584 14.2746 43.427 14.6535C43.2701 15.0324 43.0401 15.3767 42.75 15.6667L31.4209 27L42.75 38.3333C43.3357 38.919 43.6648 39.7134 43.6648 40.5417C43.6648 41.3699 43.3357 42.1643 42.75 42.75C42.1644 43.3357 41.37 43.6647 40.5417 43.6647C39.7134 43.6647 38.9191 43.3357 38.3334 42.75L27 31.4208L15.6667 42.75C15.081 43.3357 14.2867 43.6647 13.4584 43.6647C12.6301 43.6647 11.8357 43.3357 11.25 42.75C10.6644 42.1643 10.3353 41.3699 10.3353 40.5417C10.3353 39.7134 10.6644 38.919 11.25 38.3333L22.5792 27L11.25 15.6667C10.6648 15.0807 10.3361 14.2864 10.3361 13.4583C10.3361 12.6302 10.6648 11.8359 11.25 11.25Z" fill="#FFC501"/>
</g>
<defs>
<filter id="filter0_d_60_73" x="-8" y="-8" width="70" height="70" filterUnits="userSpaceOnUse" color-interpolation-filters="sRGB">
<feFlood flood-opacity="0" result="BackgroundImageFix"/>
<feColorMatrix in="SourceAlpha" type="matrix" values="0 0 0 0 0 0 0 0 0 0 0 0 0 0 0 0 0 0 127 0" result="hardAlpha"/>
<feOffset/>
<feGaussianBlur stdDeviation="5"/>
<feColorMatrix type="matrix" values="0 0 0 0 0 0 0 0 0 0 0 0 0 0 0 0 0 0 1 0"/>
<feBlend mode="normal" in2="BackgroundImageFix" result="effect1_dropShadow_60_73"/>
<feBlend mode="normal" in="SourceGraphic" in2="effect1_dropShadow_60_73" result="shape"/>
</filter>
</defs>
</svg>
