<svg width="431" height="462" viewBox="0 0 431 462" fill="none" xmlns="http://www.w3.org/2000/svg">
<path d="M323.25 231C323.25 261.633 311.898 291.01 291.691 312.671C271.484 334.331 244.077 346.5 215.5 346.5C186.923 346.5 159.516 334.331 139.309 312.671C119.102 291.01 107.75 261.633 107.75 231C107.75 200.367 119.102 170.99 139.309 149.329C159.516 127.669 186.923 115.5 215.5 115.5C244.077 115.5 271.484 127.669 291.691 149.329C311.898 170.99 323.25 200.367 323.25 231Z" fill="#FFCD29"/>
<path fill-rule="evenodd" clip-rule="evenodd" d="M215.5 24.0625C219.072 24.0625 222.498 25.5836 225.024 28.2911C227.55 30.9987 228.969 34.6709 228.969 38.5V57.75C228.969 61.5791 227.55 65.2513 225.024 67.9589C222.498 70.6664 219.072 72.1875 215.5 72.1875C211.928 72.1875 208.502 70.6664 205.976 67.9589C203.45 65.2513 202.031 61.5791 202.031 57.75V38.5C202.031 34.6709 203.45 30.9987 205.976 28.2911C208.502 25.5836 211.928 24.0625 215.5 24.0625ZM78.9988 84.6808C81.5242 81.9771 84.9475 80.4585 88.5167 80.4585C92.0859 80.4585 95.5092 81.9771 98.0346 84.6808L105.092 92.2267C107.547 94.9484 108.906 98.5947 108.877 102.38C108.848 106.166 107.433 109.788 104.937 112.466C102.441 115.144 99.0636 116.664 95.5321 116.699C92.0007 116.733 88.5978 115.28 86.0564 112.651L78.9988 105.086C76.4765 102.379 75.0598 98.7092 75.0598 94.8832C75.0598 91.0573 76.4765 87.3878 78.9988 84.6808ZM352.001 84.6808C354.524 87.3878 355.94 91.0573 355.94 94.8832C355.94 98.7092 354.524 102.379 352.001 105.086L344.944 112.651C342.391 115.201 339.013 116.59 335.524 116.524C332.035 116.458 328.706 114.942 326.238 112.297C323.77 109.652 322.357 106.083 322.295 102.343C322.234 98.6028 323.529 94.9829 325.908 92.246L332.966 84.6808C335.491 81.9771 338.914 80.4585 342.483 80.4585C346.053 80.4585 349.476 81.9771 352.001 84.6808ZM22.448 231C22.448 227.171 23.867 223.499 26.3929 220.791C28.9188 218.084 32.3446 216.562 35.9167 216.562H53.8751C57.4472 216.562 60.873 218.084 63.3989 220.791C65.9248 223.499 67.3438 227.171 67.3438 231C67.3438 234.829 65.9248 238.501 63.3989 241.209C60.873 243.916 57.4472 245.438 53.8751 245.438H35.9167C32.3446 245.438 28.9188 243.916 26.3929 241.209C23.867 238.501 22.448 234.829 22.448 231ZM363.656 231C363.656 227.171 365.075 223.499 367.601 220.791C370.127 218.084 373.553 216.562 377.125 216.562H395.083C398.656 216.562 402.081 218.084 404.607 220.791C407.133 223.499 408.552 227.171 408.552 231C408.552 234.829 407.133 238.501 404.607 241.209C402.081 243.916 398.656 245.438 395.083 245.438H377.125C373.553 245.438 370.127 243.916 367.601 241.209C365.075 238.501 363.656 234.829 363.656 231ZM325.908 349.349C328.433 346.645 331.857 345.127 335.426 345.127C338.995 345.127 342.418 346.645 344.944 349.349L352.001 356.914C353.325 358.236 354.386 359.83 355.122 361.601C355.858 363.372 356.254 365.284 356.286 367.222C356.318 369.161 355.985 371.086 355.308 372.884C354.63 374.682 353.622 376.315 352.343 377.686C351.064 379.057 349.541 380.137 347.864 380.864C346.187 381.59 344.39 381.946 342.582 381.912C340.773 381.878 338.99 381.454 337.338 380.665C335.686 379.875 334.199 378.738 332.966 377.319L325.908 369.754C323.386 367.047 321.969 363.377 321.969 359.551C321.969 355.726 323.386 352.056 325.908 349.349ZM105.092 349.349C107.615 352.056 109.031 355.726 109.031 359.551C109.031 363.377 107.615 367.047 105.092 369.754L98.0346 377.319C96.8016 378.738 95.3146 379.875 93.6624 380.665C92.0103 381.454 90.2268 381.878 88.4183 381.912C86.6099 381.946 84.8135 381.59 83.1364 380.864C81.4593 380.137 79.9359 379.057 78.6569 377.686C77.3779 376.315 76.3697 374.682 75.6922 372.884C75.0148 371.086 74.6822 369.161 74.7141 367.222C74.746 365.284 75.1418 363.372 75.878 361.601C76.6141 359.83 77.6755 358.236 78.9988 356.914L86.0384 349.349C87.2893 348.007 88.7744 346.943 90.4091 346.217C92.0438 345.491 93.7959 345.117 95.5653 345.117C97.3348 345.117 99.0869 345.491 100.722 346.217C102.356 346.943 103.841 348.007 105.092 349.349ZM215.5 389.812C219.072 389.812 222.498 391.334 225.024 394.041C227.55 396.749 228.969 400.421 228.969 404.25V423.5C228.969 427.329 227.55 431.001 225.024 433.709C222.498 436.416 219.072 437.938 215.5 437.938C211.928 437.938 208.502 436.416 205.976 433.709C203.45 431.001 202.031 427.329 202.031 423.5V404.25C202.031 400.421 203.45 396.749 205.976 394.041C208.502 391.334 211.928 389.812 215.5 389.812Z" fill="#FF8000"/>
</svg>
