<svg width="122" height="161" viewBox="0 0 122 161" fill="none" xmlns="http://www.w3.org/2000/svg">
<path opacity="0.6" d="M59.3072 13.4166H42.3594C37.8652 13.4166 33.5551 15.7726 30.3773 19.9664C27.1994 24.1601 25.4141 29.848 25.4141 35.7789C25.4141 41.7097 27.1994 47.3976 30.3773 51.5913C33.5551 55.7851 37.8652 58.1411 42.3594 58.1411H59.3072V13.4166Z" fill="#210036"/>
<path opacity="0.4" d="M59.3073 58.1411H42.3594C37.8659 58.1411 33.5565 60.4968 30.3791 64.6899C27.2017 68.883 25.4167 74.57 25.4167 80.5C25.4167 86.4299 27.2017 92.117 30.3791 96.3101C33.5565 100.503 37.8659 102.859 42.3594 102.859H59.3073V58.1411Z" fill="#9D03FF"/>
<path d="M93.1928 80.5C93.1928 86.4309 91.4075 92.1188 88.2296 96.3125C85.0517 100.506 80.7416 102.862 76.2475 102.862C71.7533 102.862 67.4432 100.506 64.2653 96.3125C61.0875 92.1188 59.3022 86.4309 59.3022 80.5C59.3022 74.5692 61.0875 68.8813 64.2653 64.6876C67.4432 60.4938 71.7533 58.1378 76.2475 58.1378C80.7416 58.1378 85.0517 60.4938 88.2296 64.6876C91.4075 68.8813 93.1928 74.5692 93.1928 80.5Z" fill="#F8FFC5"/>
<path opacity="0.2" d="M42.3594 102.866H59.3073V125.224C59.3063 129.646 58.3119 133.968 56.4498 137.644C54.5877 141.32 51.9415 144.184 48.8459 145.876C45.7502 147.567 42.344 148.01 39.0579 147.147C35.7718 146.284 32.7534 144.154 30.3842 141.028C28.015 137.901 26.4015 133.918 25.7476 129.581C25.0937 125.245 25.4288 120.75 26.7105 116.664C27.9922 112.579 30.163 109.087 32.9485 106.63C35.7339 104.172 39.0089 102.867 42.3594 102.866Z" fill="#DF00FF"/>
<path opacity="0.8" d="M59.3022 13.4166H76.2449C80.7391 13.4166 85.0492 15.7726 88.2271 19.9664C91.4049 24.1601 93.1902 29.848 93.1902 35.7789C93.1902 41.7097 91.4049 47.3976 88.2271 51.5913C85.0492 55.7851 80.7391 58.1411 76.2449 58.1411H59.3022V13.4166Z" fill="#C7B402"/>
</svg>
