<svg width="271" height="244" viewBox="0 0 271 244" fill="none" xmlns="http://www.w3.org/2000/svg">
<path opacity="0.5" fill-rule="evenodd" clip-rule="evenodd" d="M248.417 122C248.417 178.151 197.864 223.667 135.5 223.667C122.73 223.678 110.05 221.739 98.0004 217.933C92.9286 206.853 90.3236 194.984 90.3333 183C90.3024 161.306 98.8619 140.313 114.475 123.789C121.218 132.643 130.255 139.884 140.804 144.887C151.354 149.889 163.098 152.502 175.021 152.5C187.669 152.502 200.102 149.561 211.116 143.962C222.13 138.364 231.349 130.298 237.882 120.546C240.592 116.52 248.417 117.293 248.417 122Z" fill="#E5E5E5"/>
<path d="M22.5833 122C22.5833 166.317 54.0757 204.004 98.0003 217.922C92.93 206.846 90.325 194.981 90.3333 183C90.3333 160.42 99.423 139.751 114.475 123.789C106.081 112.794 101.599 99.7593 101.625 86.4167C101.623 75.029 104.889 63.8342 111.108 53.9178C117.326 44.0015 126.284 35.7001 137.115 29.8188C141.597 27.3788 140.728 20.3333 135.5 20.3333C73.136 20.3333 22.5833 65.8495 22.5833 122Z" fill="white"/>
</svg>
